<svg xmlns="http://www.w3.org/2000/svg" width="1200" height="675" viewBox="0 0 1200 675" role="img" aria-label="Mobile News Live TV React Native App Development">
  <rect width="1200" height="675" fill="#eef7ff"/>
  <rect x="48" y="48" width="1104" height="579" rx="30" fill="#ffffff" stroke="#0b5cad" stroke-width="5"/>
  <rect x="84" y="84" width="250" height="64" rx="32" fill="#bd1c2b"/>
  <text x="209" y="126" text-anchor="middle" font-family="Arial, sans-serif" font-size="28" font-weight="900" fill="#ffffff">NEWS APP</text>
  <rect x="780" y="112" width="250" height="455" rx="38" fill="#111827"/>
  <rect x="805" y="152" width="200" height="355" rx="22" fill="#f8fafc"/>
  <rect x="824" y="172" width="162" height="92" rx="14" fill="#bd1c2b"/>
  <circle cx="852" cy="205" r="10" fill="#ffffff"/>
  <text x="876" y="214" font-family="Arial, sans-serif" font-size="28" font-weight="900" fill="#ffffff">LIVE</text>
  <rect x="824" y="286" width="162" height="34" rx="8" fill="#0b5cad"/>
  <rect x="824" y="336" width="162" height="34" rx="8" fill="#e5e7eb"/>
  <rect x="824" y="386" width="162" height="34" rx="8" fill="#e5e7eb"/>
  <rect x="824" y="436" width="70" height="48" rx="12" fill="#bd1c2b"/>
  <rect x="916" y="436" width="70" height="48" rx="12" fill="#0b5cad"/>
  <circle cx="905" cy="542" r="12" fill="#f8fafc"/>
  <circle cx="1052" cy="150" r="70" fill="#0b5cad" opacity="0.12"/>
  <circle cx="1052" cy="150" r="44" fill="#0b5cad"/>
  <text x="1052" y="160" text-anchor="middle" font-family="Arial, sans-serif" font-size="22" font-weight="900" fill="#ffffff">RN</text>
  <text x="92" y="230" font-family="Georgia, serif" font-size="54" font-weight="900" fill="#111827">
    <tspan x="92" dy="0">Mobile News Live TV</tspan>
    <tspan x="92" dy="64">React Native App</tspan>
  </text>
  <text x="92" y="372" font-family="Arial, sans-serif" font-size="32" font-weight="800" fill="#bd1c2b">Live TV • Shorts • Video Upload • Reporter Panel</text>
  <text x="92" y="430" font-family="Arial, sans-serif" font-size="28" fill="#374151">Django backend connected mobile app for local news brands</text>
  <rect x="92" y="488" width="330" height="62" rx="12" fill="#0b5cad"/>
  <text x="257" y="529" text-anchor="middle" font-family="Arial, sans-serif" font-size="25" font-weight="900" fill="#ffffff">WhatsApp: 6397712918</text>
  <text x="92" y="590" font-family="Arial, sans-serif" font-size="30" font-weight="900" fill="#bd1c2b">THE UP MEDIA</text>
</svg>
